<?xml version="1.0" encoding="utf-8"?>
<?xml-stylesheet type="text/xsl" href="rss1.xsl"?>
<rss version="2.0" xmlns:atom="http://www.w3.org/2005/Atom" xmlns:content="http://purl.org/rss/1.0/modules/content/" xmlns:dc="http://purl.org/dc/elements/1.1/" xmlns:media="http://search.yahoo.com/mrss/">
<channel>
 <title>Getty</title>
 <link>http://www.gettyimg.com/</link>
 <atom:link href="http://www.gettyimg.com/" rel="self" type="application/rss+xml" />

 
                <item>
                <title><![CDATA[【Music Videos】Electronic - Disappointed (1080p 5.1) (Clean)]]></title>
                <link><![CDATA[https://sharemania.us/threads/electronic-disappointed-1080p-5-1-clean.235992/]]></link>
                <description><![CDATA[<article>
<blockquote class="messageText SelectQuoteContainer ugc baseHtml">
<img src="https://i.ibb.co/DVPCSsr/Electronic-Disappointed-1080p-5-1-mp4-thumbs-2024-01-17-21-53-18.jpg" class="bbCodeImage LbImage" alt="[​IMG]" data-url="https://i.ibb.co/DVPCSsr/Electronic-Disappointed-1080p-5-1-mp4-thumbs-2024-01-17-21-53-18.jpg" style=""> <br>
<br>
<div class="ToggleTriggerAnchor bbCodeSpoilerContainer">
<button type="button" class="button bbCodeSpoilerButton ToggleTrigger Tooltip JsOnly" data-target="> .SpoilerTarget"><span>Spoiler: <span class="SpoilerTitle">MediaInfo</span></span></button>
<div class="SpoilerTarget bbCodeSpoilerText">Electronic - Disappointed (1080p 5.1).mp4<br>
Format : MPEG-4<br>
Format profile : Base Media / Version 2<br>
Codec ID : mp42 (mp42/mp41)<br>
File size : 319 MiB<br>
Duration : 4 min 20 s<br>
Overall bit rate mode : Variable<br>
Overall bit rate : 10.3 Mb/s<br>
Frame rate : 30.000 FPS<br>
Encoded date : 2024-01-18 00:45:26 UTC<br>
Tagged date : 2024-01-18 00:46:40 UTC<br>
TIM : 00:00:00:00<br>
TSC : 30<br>
TSZ : 1<br>
<br>
Video<br>
ID : 1<br>
Format : AVC<br>
Format/Info : Advanced Video Codec<br>
Format profile : Main@L4.1<br>
Format settings : CABAC / 4 Ref Frames<br>
Format settings, CABAC : Yes<br>
Format settings, Reference : 4 frames<br>
Codec ID : avc1<br>
Codec ID/Info : Advanced Video Coding<br>
Duration : 4 min 20 s<br>
Bit rate : 9 950 kb/s<br>
Width : 1 920 pixels<br>
Height : 1 080 pixels<br>
Display aspect ratio : 16:9<br>
Frame rate mode : Constant<br>
Frame rate : 30.000 FPS<br>
Color space : YUV<br>
Chroma subsampling : 4:2:0<br>
Bit depth : 8 bits<br>
Scan type : Progressive<br>
Bits/(Pixel*Frame) : 0.160<br>
Stream size : 309 MiB (97%)<br>
Language : English<br>
Encoded date : 2024-01-18 00:45:27 UTC<br>
Tagged date : 2024-01-18 00:45:27 UTC<br>
Color range : Limited<br>
Color primaries : BT.709<br>
Transfer characteristics : BT.709<br>
Matrix coefficients : BT.709<br>
Codec configuration box : avcC<br>
<br>
Audio<br>
ID : 2<br>
Format : AAC LC<br>
Format/Info : Advanced Audio Codec Low Complexity<br>
Codec ID : mp4a-40-2<br>
Duration : 4 min 20 s<br>
Source duration : 4 min 20 s<br>
Bit rate mode : Variable<br>
Bit rate : 317 kb/s<br>
Maximum bit rate : 1 251 kb/s<br>
Channel(s) : 6 channels<br>
Channel layout : C L R Ls Rs LFE<br>
Sampling rate : 48.0 kHz<br>
Frame rate : 46.875 FPS (1024 SPF)<br>
Compression mode : Lossy<br>
Stream size : 9.87 MiB (3%)<br>
Source stream size : 9.87 MiB (3%)<br>
Language : English<br>
Encoded date : 2024-01-18 00:45:27 UTC<br>
Tagged date : 2024-01-18 00:45:27 UTC</div>
</div><br>
<div class="bbCodeBlock bbCodeVfcHH HiddenContent">
<div class="attribution type">Hidden Content:</div>
<blockquote>You must reply before you can see the hidden data contained here.</blockquote>
</div>
<div class="messageTextEndMarker">&nbsp;</div>
</blockquote>
</article>]]></description>
                <author><![CDATA[DJ-RoGeRs-BS]]></author>
                </item>

                
                <item>
                <title><![CDATA[【Singles (lossless)】FLAC - Allie X - Off With Her Tits | Qobuz Hi-Res 24bit / 44.1kHz]]></title>
                <link><![CDATA[https://sharemania.us/threads/allie-x-off-with-her-tits-qobuz-hi-res-24bit-44-1khz.235991/]]></link>
                <description><![CDATA[<article>
<blockquote class="messageText SelectQuoteContainer ugc baseHtml">
<div style="text-align: center"><img src="https://static.qobuz.com/images/covers/ua/g8/yvq571mh4g8ua_600.jpg" class="bbCodeImage LbImage" alt="[​IMG]" data-url="https://static.qobuz.com/images/covers/ua/g8/yvq571mh4g8ua_600.jpg" style=""><br>
<div class="bbCodeBlock bbCodeVfcHH HiddenContent">
<div class="attribution type">Hidden Content:</div>
<blockquote>You must reply before you can see the hidden data contained here.</blockquote>
</div></div>
<div class="messageTextEndMarker">&nbsp;</div>
</blockquote>
</article>]]></description>
                <author><![CDATA[Yennefer]]></author>
                </item>

                
                <item>
                <title><![CDATA[【Singles (lossless)】FLAC - Allie X - Black Eye (Just Wondering Remix) | Qobuz CD 16bit / 44.1kHz]]></title>
                <link><![CDATA[https://sharemania.us/threads/allie-x-black-eye-just-wondering-remix-qobuz-cd-16bit-44-1khz.235990/]]></link>
                <description><![CDATA[<article>
<blockquote class="messageText SelectQuoteContainer ugc baseHtml">
<div style="text-align: center"><img src="https://static.qobuz.com/images/covers/wc/dg/mu2f5rbyadgwc_600.jpg" class="bbCodeImage LbImage" alt="[​IMG]" data-url="https://static.qobuz.com/images/covers/wc/dg/mu2f5rbyadgwc_600.jpg" style=""><br>
<div class="bbCodeBlock bbCodeVfcHH HiddenContent">
<div class="attribution type">Hidden Content:</div>
<blockquote>You must reply before you can see the hidden data contained here.</blockquote>
</div></div>
<div class="messageTextEndMarker">&nbsp;</div>
</blockquote>
</article>]]></description>
                <author><![CDATA[Yennefer]]></author>
                </item>

                </channel></rss>